#Comment line ignore any data following # character 
#Hierarchical Translation and Rotation (.htr) file 
[Header]	
#Header keywords are followed by a single value 
FileType HTR		#Single word string
DataType HTRS		#Translation followed by rotation and scale data
FileVersion 1		#integer
NumSegments 84		#integer
NumFrames 2		#integer
DataFrameRate 30		#integer, data frame rate in this file
EulerRotationOrder ZYX
CalibrationUnits mm
RotationUnits Degrees
GlobalAxisofGravity Y
BoneLengthAxis Y
ScaleFactor 1.00
[SegmentNames&Hierarchy]
#CHILD	PARENT
MASTER GLOBAL
root MASTER
chest root
L_mid_tent01 root
R_mid_tent01 root
spine01 root
Bip01_Neck chest
L_humerus chest
R_humerus chest
weapon_bone chest
Bip01_Head Bip01_Neck
eye_left_bone Bip01_Head
eye_right_bone Bip01_Head
L_forearm L_humerus
L_front_hand L_forearm
L_weapon_bone L_forearm
L_front_hand01_01 L_front_hand
L_front_hand02_01 L_front_hand
L_front_hand03_01 L_front_hand
L_front_hand01_02 L_front_hand01_01
L_front_hand02_02 L_front_hand02_01
L_front_hand03_02 L_front_hand03_01
R_forearm R_humerus
R_front_hand R_forearm
R_weapon_bone R_forearm
R_front_hand01_01 R_front_hand
R_front_hand02_01 R_front_hand
R_front_hand03_01 R_front_hand
R_front_hand01_02 R_front_hand01_01
R_front_hand02_02 R_front_hand02_01
R_front_hand03_02 R_front_hand03_01
null_rope01_connect L_mid_tent01
Rope1_Seg01 null_rope01_connect
Rope1_Seg02 Rope1_Seg01
Rope1_Seg03 Rope1_Seg02
Rope1_Seg04 Rope1_Seg03
Rope1_Seg05 Rope1_Seg04
Rope1_Seg06 Rope1_Seg05
Rope1_Seg07 Rope1_Seg06
Rope1_Seg09 Rope1_Seg07
L_mid_hand01 Rope1_Seg09
L_mid_hand02 Rope1_Seg09
L_mid_hand03 Rope1_Seg09
null_rope02_connect R_mid_tent01
Rope2_Seg01 null_rope02_connect
Rope2_Seg02 Rope2_Seg01
Rope2_Seg03 Rope2_Seg02
Rope2_Seg04 Rope2_Seg03
Rope2_Seg05 Rope2_Seg04
Rope2_Seg06 Rope2_Seg05
Rope2_Seg07 Rope2_Seg06
Rope2_Seg09 Rope2_Seg07
R_mid_hand01 Rope2_Seg09
R_mid_hand02 Rope2_Seg09
R_mid_hand03 Rope2_Seg09
spine02 spine01
spine03 spine02
pelvis spine03
null_rope03_connect pelvis
null_rope04_connect pelvis
Rope3_Seg01 null_rope03_connect
Rope3_Seg02 Rope3_Seg01
Rope3_Seg03 Rope3_Seg02
Rope3_Seg04 Rope3_Seg03
Rope3_Seg05 Rope3_Seg04
Rope3_Seg06 Rope3_Seg05
Rope3_Seg07 Rope3_Seg06
Rope3_Seg08 Rope3_Seg07
Rope3_Seg09 Rope3_Seg08
R_rear_hand01 Rope3_Seg09
R_rear_hand02 Rope3_Seg09
R_rear_hand03 Rope3_Seg09
Rope4_Seg01 null_rope04_connect
Rope4_Seg02 Rope4_Seg01
Rope4_Seg03 Rope4_Seg02
Rope4_Seg04 Rope4_Seg03
Rope4_Seg05 Rope4_Seg04
Rope4_Seg06 Rope4_Seg05
Rope4_Seg07 Rope4_Seg06
Rope4_Seg08 Rope4_Seg07
Rope4_Seg09 Rope4_Seg08
L_rear_hand01 Rope4_Seg09
L_rear_hand02 Rope4_Seg09
L_rear_hand03 Rope4_Seg09
[BasePosition]
#SegmentName Tx, Ty, Tz, Rx, Ry, Rz, BoneLength
MASTER 0.000000 0.000000 0.000000 -90.000000 0.000000 0.000000 10.000000 
root 0.000000 0.000000 0.000000 0.000000 0.000000 0.000000 10.000000 
chest 0.000000 0.000000 0.000000 0.000000 0.000000 0.000000 10.000000 
L_mid_tent01 0.000000 0.000000 0.000000 0.000000 0.000000 0.000000 10.000000 
R_mid_tent01 0.000000 0.000000 0.000000 0.000000 0.000000 0.000000 10.000000 
spine01 0.000000 0.000000 0.000000 0.000000 0.000000 0.000000 10.000000 
Bip01_Neck 0.000000 0.000000 0.000000 0.000000 0.000000 0.000000 10.000000 
L_humerus 0.000000 0.000000 0.000000 0.000000 0.000000 0.000000 10.000000 
R_humerus 0.000000 0.000000 0.000000 0.000000 0.000000 0.000000 10.000000 
weapon_bone 0.000000 0.000000 0.000000 0.000000 0.000000 0.000000 10.000000 
Bip01_Head 0.000000 0.000000 0.000000 0.000000 0.000000 0.000000 10.000000 
eye_left_bone 0.000000 0.000000 0.000000 0.000000 0.000000 0.000000 10.000000 
eye_right_bone 0.000000 0.000000 0.000000 0.000000 0.000000 0.000000 10.000000 
L_forearm 0.000000 0.000000 0.000000 0.000000 0.000000 0.000000 10.000000 
L_front_hand 0.000000 0.000000 0.000000 0.000000 0.000000 0.000000 10.000000 
L_weapon_bone 0.000000 0.000000 0.000000 0.000000 0.000000 0.000000 10.000000 
L_front_hand01_01 0.000000 0.000000 0.000000 0.000000 0.000000 0.000000 10.000000 
L_front_hand02_01 0.000000 0.000000 0.000000 0.000000 0.000000 0.000000 10.000000 
L_front_hand03_01 0.000000 0.000000 0.000000 0.000000 0.000000 0.000000 10.000000 
L_front_hand01_02 0.000000 0.000000 0.000000 0.000000 0.000000 0.000000 10.000000 
L_front_hand02_02 0.000000 0.000000 0.000000 0.000000 0.000000 0.000000 10.000000 
L_front_hand03_02 0.000000 0.000000 0.000000 0.000000 0.000000 0.000000 10.000000 
R_forearm 0.000000 0.000000 0.000000 0.000000 0.000000 0.000000 10.000000 
R_front_hand 0.000000 0.000000 0.000000 0.000000 0.000000 0.000000 10.000000 
R_weapon_bone 0.000000 0.000000 0.000000 0.000000 0.000000 0.000000 10.000000 
R_front_hand01_01 0.000000 0.000000 0.000000 0.000000 0.000000 0.000000 10.000000 
R_front_hand02_01 0.000000 0.000000 0.000000 0.000000 0.000000 0.000000 10.000000 
R_front_hand03_01 0.000000 0.000000 0.000000 0.000000 0.000000 0.000000 10.000000 
R_front_hand01_02 0.000000 0.000000 0.000000 0.000000 0.000000 0.000000 10.000000 
R_front_hand02_02 0.000000 0.000000 0.000000 0.000000 0.000000 0.000000 10.000000 
R_front_hand03_02 0.000000 0.000000 0.000000 0.000000 0.000000 0.000000 10.000000 
null_rope01_connect 0.000000 0.000000 0.000000 0.000000 0.000000 0.000000 10.000000 
Rope1_Seg01 0.000000 0.000000 0.000000 0.000000 0.000000 0.000000 10.000000 
Rope1_Seg02 0.000000 0.000000 0.000000 0.000000 0.000000 0.000000 10.000000 
Rope1_Seg03 0.000000 0.000000 0.000000 0.000000 0.000000 0.000000 10.000000 
Rope1_Seg04 0.000000 0.000000 0.000000 0.000000 0.000000 0.000000 10.000000 
Rope1_Seg05 0.000000 0.000000 0.000000 0.000000 0.000000 0.000000 10.000000 
Rope1_Seg06 0.000000 0.000000 0.000000 0.000000 0.000000 0.000000 10.000000 
Rope1_Seg07 0.000000 0.000000 0.000000 0.000000 0.000000 0.000000 10.000000 
Rope1_Seg09 0.000000 0.000000 0.000000 0.000000 0.000000 0.000000 10.000000 
L_mid_hand01 0.000000 0.000000 0.000000 0.000000 0.000000 0.000000 10.000000 
L_mid_hand02 0.000000 0.000000 0.000000 0.000000 0.000000 0.000000 10.000000 
L_mid_hand03 0.000000 0.000000 0.000000 0.000000 0.000000 0.000000 10.000000 
null_rope02_connect 0.000000 0.000000 0.000000 0.000000 0.000000 0.000000 10.000000 
Rope2_Seg01 0.000000 0.000000 0.000000 0.000000 0.000000 0.000000 10.000000 
Rope2_Seg02 0.000000 0.000000 0.000000 0.000000 0.000000 0.000000 10.000000 
Rope2_Seg03 0.000000 0.000000 0.000000 0.000000 0.000000 0.000000 10.000000 
Rope2_Seg04 0.000000 0.000000 0.000000 0.000000 0.000000 0.000000 10.000000 
Rope2_Seg05 0.000000 0.000000 0.000000 0.000000 0.000000 0.000000 10.000000 
Rope2_Seg06 0.000000 0.000000 0.000000 0.000000 0.000000 0.000000 10.000000 
Rope2_Seg07 0.000000 0.000000 0.000000 0.000000 0.000000 0.000000 10.000000 
Rope2_Seg09 0.000000 0.000000 0.000000 0.000000 0.000000 0.000000 10.000000 
R_mid_hand01 0.000000 0.000000 0.000000 0.000000 0.000000 0.000000 10.000000 
R_mid_hand02 0.000000 0.000000 0.000000 0.000000 0.000000 0.000000 10.000000 
R_mid_hand03 0.000000 0.000000 0.000000 0.000000 0.000000 0.000000 10.000000 
spine02 0.000000 0.000000 0.000000 0.000000 0.000000 0.000000 10.000000 
spine03 0.000000 0.000000 0.000000 0.000000 0.000000 0.000000 10.000000 
pelvis 0.000000 0.000000 0.000000 0.000000 0.000000 0.000000 10.000000 
null_rope03_connect 0.000000 0.000000 0.000000 0.000000 0.000000 0.000000 10.000000 
null_rope04_connect 0.000000 0.000000 0.000000 0.000000 0.000000 0.000000 10.000000 
Rope3_Seg01 0.000000 0.000000 0.000000 0.000000 0.000000 0.000000 10.000000 
Rope3_Seg02 0.000000 0.000000 0.000000 0.000000 0.000000 0.000000 10.000000 
Rope3_Seg03 0.000000 0.000000 0.000000 0.000000 0.000000 0.000000 10.000000 
Rope3_Seg04 0.000000 0.000000 0.000000 0.000000 0.000000 0.000000 10.000000 
Rope3_Seg05 0.000000 0.000000 0.000000 0.000000 0.000000 0.000000 10.000000 
Rope3_Seg06 0.000000 0.000000 0.000000 0.000000 0.000000 0.000000 10.000000 
Rope3_Seg07 0.000000 0.000000 0.000000 0.000000 0.000000 0.000000 10.000000 
Rope3_Seg08 0.000000 0.000000 0.000000 0.000000 0.000000 0.000000 10.000000 
Rope3_Seg09 0.000000 0.000000 0.000000 0.000000 0.000000 0.000000 10.000000 
R_rear_hand01 0.000000 0.000000 0.000000 0.000000 0.000000 0.000000 10.000000 
R_rear_hand02 0.000000 0.000000 0.000000 0.000000 0.000000 0.000000 10.000000 
R_rear_hand03 0.000000 0.000000 0.000000 0.000000 0.000000 0.000000 10.000000 
Rope4_Seg01 0.000000 0.000000 0.000000 0.000000 0.000000 0.000000 10.000000 
Rope4_Seg02 0.000000 0.000000 0.000000 0.000000 0.000000 0.000000 10.000000 
Rope4_Seg03 0.000000 0.000000 0.000000 0.000000 0.000000 0.000000 10.000000 
Rope4_Seg04 0.000000 0.000000 0.000000 0.000000 0.000000 0.000000 10.000000 
Rope4_Seg05 0.000000 0.000000 0.000000 0.000000 0.000000 0.000000 10.000000 
Rope4_Seg06 0.000000 0.000000 0.000000 0.000000 0.000000 0.000000 10.000000 
Rope4_Seg07 0.000000 0.000000 0.000000 0.000000 0.000000 0.000000 10.000000 
Rope4_Seg08 0.000000 0.000000 0.000000 0.000000 0.000000 0.000000 10.000000 
Rope4_Seg09 0.000000 0.000000 0.000000 0.000000 0.000000 0.000000 10.000000 
L_rear_hand01 0.000000 0.000000 0.000000 0.000000 0.000000 0.000000 10.000000 
L_rear_hand02 0.000000 0.000000 0.000000 0.000000 0.000000 0.000000 10.000000 
L_rear_hand03 0.000000 0.000000 0.000000 0.000000 0.000000 0.000000 10.000000 
#Beginning of Data. Separated by tabs
#Fr	Tx	Ty	Tz	Rx	Ry	Rz	SF
[MASTER]
52 -90.763405 -234.496429 -410.538727 0.001346 0.001923 -20.001186 481.423553
53 -94.028366 -200.685532 -497.537018 0.001346 0.001923 -20.001186 544.664246
[root]
52 -20.534317 395.030731 1479.398926 -75.750519 -9.553010 -90.743263 1531.369385
53 -12.004230 414.034576 1522.890869 -75.292625 -10.337141 -91.210129 1578.215820
[chest]
52 -84.512650 -34.090519 0.000000 0.927133 3.689933 138.889801 91.129311
53 -84.512650 -34.090519 0.000000 -0.740062 3.465143 140.274872 91.129311
[L_mid_tent01]
52 27.298811 22.179335 -249.918762 106.165504 67.302582 -172.480347 252.381729
53 27.298811 22.179335 -249.918762 89.443275 64.429382 175.172913 252.381729
[R_mid_tent01]
52 23.228794 24.509907 226.238495 92.518990 -64.747925 140.424362 228.744751
53 23.228794 24.509907 226.238495 89.946037 -65.328850 142.693512 228.744751
[spine01]
52 -0.361383 -0.195265 0.000000 -0.000001 -0.000007 22.052340 0.410763
53 -0.361383 -0.195265 0.000000 -0.000001 -0.000007 22.052340 0.410763
[Bip01_Neck]
52 165.484543 71.581718 0.000119 176.643677 -1.657967 43.431911 180.302734
53 165.484543 71.581718 0.000119 176.643677 -1.657967 43.431911 180.302734
[L_humerus]
52 -13.983130 -135.272980 -120.471481 178.964996 1.892241 -146.979980 181.680161
53 -13.983130 -135.272980 -120.471481 178.964996 1.892241 -146.979980 181.680161
[R_humerus]
52 -13.983309 -135.273102 125.287651 176.357590 6.146129 -145.149719 184.909012
53 -13.983309 -135.273102 125.287651 176.357590 6.146129 -145.149719 184.909012
[weapon_bone]
52 235.964890 -300.705902 0.000000 0.000000 -89.951546 -128.212341 382.234833
53 235.964890 -300.705902 0.000000 0.000000 -89.951546 -128.212341 382.234833
[Bip01_Head]
52 213.388702 185.946167 9.782672 -6.313106 2.796308 -43.900185 283.207367
53 213.391876 185.937225 9.897320 -6.341307 2.795688 -43.899681 283.207886
[eye_left_bone]
52 -24.626970 125.451866 -64.772606 0.000000 -90.000000 -99.840431 143.318359
53 -24.626970 125.451866 -64.772606 0.000000 -90.000000 -99.840431 143.318359
[eye_right_bone]
52 -24.626970 125.451866 64.327362 0.000000 -89.965736 80.156380 143.117676
53 -24.626970 125.451866 64.327362 0.000000 -89.965736 80.156380 143.117676
[L_forearm]
52 322.776093 0.000000 -0.000119 0.001130 -0.002057 -147.582291 322.776093
53 322.776093 0.000000 -0.000119 0.001130 -0.002057 -147.582275 322.776093
[L_front_hand]
52 241.149185 -0.042021 -3.300071 -163.802780 -1.834505 -27.422173 241.171753
53 241.149185 -0.042021 -3.300071 -163.407654 -1.835528 -27.422466 241.171753
[L_weapon_bone]
52 156.183838 0.000000 0.000000 0.000014 0.000007 0.000001 156.183838
53 156.183838 0.000000 0.000000 0.000014 0.000007 0.000001 156.183838
[L_front_hand01_01]
52 86.095154 20.947098 -0.655860 -0.320916 -0.506937 70.186195 88.609184
53 86.095154 20.947098 -0.655860 -0.334039 -0.500941 71.473755 88.609184
[L_front_hand02_01]
52 86.935165 -11.437475 24.513514 146.956497 -57.330292 -52.653637 91.046425
53 86.935165 -11.437475 24.513514 148.678955 -58.017021 -54.691463 91.046425
[L_front_hand03_01]
52 86.637497 -14.123976 -20.424902 -146.987732 55.547054 -54.435047 90.126129
53 86.637497 -14.123976 -20.424902 -148.599594 56.232170 -56.378189 90.126129
[L_front_hand01_02]
52 71.020905 -0.000179 0.000030 0.000296 -0.002328 -104.483795 71.020905
53 71.020905 -0.000179 0.000030 0.000289 -0.002329 -104.145599 71.020905
[L_front_hand02_02]
52 71.020927 -0.000119 0.000060 0.000296 -0.002328 -104.483795 71.020927
53 71.020927 -0.000119 0.000060 0.000289 -0.002329 -104.145599 71.020927
[L_front_hand03_02]
52 71.020905 -0.000060 0.000060 0.000296 -0.002328 -104.483795 71.020905
53 71.020905 -0.000060 0.000060 0.000289 -0.002329 -104.145599 71.020905
[R_forearm]
52 322.776428 -0.000060 0.000030 0.114825 0.181653 -148.389832 322.776428
53 322.776428 -0.000060 0.000030 0.114825 0.181653 -148.389832 322.776428
[R_front_hand]
52 238.847015 -0.006795 2.210259 -2.635298 -10.645461 -26.312506 238.857239
53 238.847015 -0.006795 2.210259 -2.635298 -10.645461 -26.312506 238.857239
[R_weapon_bone]
52 155.664093 0.002503 -0.000030 0.003487 0.001180 -90.988930 155.664078
53 155.664093 0.002503 -0.000030 0.003487 0.001180 -90.988930 155.664078
[R_front_hand01_01]
52 87.624611 14.231146 22.918642 -150.820480 -58.784569 57.311783 91.683487
53 87.624611 14.231146 22.918642 -153.536850 -59.633728 60.470848 91.683487
[R_front_hand02_01]
52 89.356956 14.367283 -19.491137 151.027008 57.144730 59.518509 92.579636
53 89.356956 14.367283 -19.491137 153.567566 57.992992 62.530998 92.579636
[R_front_hand03_01]
52 87.286232 -22.307278 -0.143439 0.144811 -0.432555 -73.232796 90.091743
53 87.286232 -22.307278 -0.143439 0.155616 -0.427176 -75.061478 90.091743
[R_front_hand01_02]
52 71.020905 0.000060 0.000119 0.002332 -0.000263 102.881065 71.020905
53 71.020905 0.000060 0.000119 0.002333 -0.000262 102.820580 71.020905
[R_front_hand02_02]
52 71.020844 -0.000030 -0.000119 0.002332 -0.000263 102.881065 71.020836
53 71.020844 -0.000030 -0.000119 0.002333 -0.000262 102.820580 71.020836
[R_front_hand03_02]
52 71.020905 0.000000 0.000030 0.002332 -0.000263 102.881065 71.020905
53 71.020905 0.000000 0.000030 0.002333 -0.000262 102.820580 71.020905
[null_rope01_connect]
52 328.732483 0.000000 -0.000238 -161.307419 -1.535090 136.467285 328.732483
53 328.732483 0.000000 -0.000238 -160.905548 -8.650264 132.579636 328.732483
[Rope1_Seg01]
52 -0.000115 0.000000 0.000000 -50.090496 37.924496 101.888908 0.000115
53 -0.000114 0.000000 0.000000 -78.701118 50.083679 89.709114 0.000114
[Rope1_Seg02]
52 139.999863 -0.000179 0.000000 -17.731598 11.721003 9.161870 139.999863
53 139.999863 -0.000179 0.000000 -11.538894 3.789992 10.247419 139.999863
[Rope1_Seg03]
52 139.999924 0.000060 -0.000060 -14.204145 7.867674 12.594436 139.999924
53 139.999924 0.000060 -0.000060 -8.008636 1.338761 11.375425 139.999924
[Rope1_Seg04]
52 139.999924 -0.000060 -0.000119 -9.270069 4.376179 12.819505 139.999924
53 139.999924 -0.000060 -0.000119 -4.567402 -0.811832 10.353391 139.999924
[Rope1_Seg05]
52 139.999832 0.000119 -0.000060 -6.973084 3.811337 13.644891 139.999832
53 139.999832 0.000119 -0.000060 -4.226888 1.519174 10.388673 139.999832
[Rope1_Seg06]
52 139.999954 0.000119 -0.000060 -3.451919 1.446630 10.016053 139.999954
53 139.999954 0.000119 -0.000060 -3.439989 2.438672 11.091289 139.999954
[Rope1_Seg07]
52 139.999985 0.000060 0.000000 -1.589263 0.427578 6.414281 139.999985
53 139.999985 0.000060 0.000000 -1.643213 0.624478 8.483293 139.999985
[Rope1_Seg09]
52 121.602913 0.000119 -0.000089 -89.793175 -1.359789 0.847147 121.602913
53 121.602913 0.000119 -0.000089 -89.793175 -1.359789 0.847147 121.602913
[L_mid_hand01]
52 103.859421 1.038730 8.195221 130.544373 -67.584534 -38.866943 104.187431
53 103.859421 1.038730 8.195221 130.544373 -67.584534 -38.866943 104.187431
[L_mid_hand02]
52 105.572853 -4.139662 -10.864139 -168.923172 43.409309 -73.498886 106.211075
53 105.572853 -4.139662 -10.864139 -168.923172 43.409309 -73.498886 106.211075
[L_mid_hand03]
52 104.641464 17.579376 -3.913581 -6.012627 17.808174 74.893669 106.179977
53 104.641464 17.579376 -3.913581 -6.012627 17.808174 74.893669 106.179977
[null_rope02_connect]
52 328.732849 0.000179 -0.000119 -131.832169 5.226435 2.626623 328.732849
53 328.732849 0.000179 -0.000119 -130.488617 4.435928 1.743002 328.732849
[Rope2_Seg01]
52 0.000115 0.000000 0.000000 146.935516 -46.855045 -7.800875 0.000115
53 0.000114 0.000000 0.000000 145.218124 -47.934227 -5.388005 0.000114
[Rope2_Seg02]
52 139.999741 -0.000060 -0.000119 -28.562199 -19.357391 -12.681943 139.999756
53 139.999741 -0.000060 -0.000119 -25.280083 -18.729862 -11.960733 139.999756
[Rope2_Seg03]
52 140.000107 0.000030 0.000000 -41.550365 -16.821346 -46.491951 140.000107
53 140.000107 0.000030 0.000000 -41.617222 -19.181667 -42.383820 140.000107
[Rope2_Seg04]
52 139.999802 0.000000 -0.000060 -15.513927 10.359881 -49.679745 139.999802
53 139.999802 0.000000 -0.000060 -17.216995 8.073056 -45.828442 139.999802
[Rope2_Seg05]
52 139.999985 -0.000060 0.000119 5.953291 13.147450 -42.682606 139.999985
53 139.999985 -0.000060 0.000119 2.150912 14.860158 -48.848503 139.999985
[Rope2_Seg06]
52 139.999893 -0.000030 -0.000119 5.413981 1.748589 -9.806731 139.999893
53 139.999893 -0.000030 -0.000119 5.751296 2.499476 -11.348415 139.999893
[Rope2_Seg07]
52 139.999893 0.000060 -0.000060 2.903450 0.356033 -4.408343 139.999893
53 139.999893 0.000060 -0.000060 3.057711 0.551786 -4.838556 139.999893
[Rope2_Seg09]
52 121.338966 0.000089 -0.000060 33.793236 -1.359788 -0.847141 121.338966
53 121.338966 0.000089 -0.000060 33.793236 -1.359788 -0.847141 121.338966
[R_mid_hand01]
52 104.680779 11.144459 -10.335981 -16.212067 45.237247 70.462852 105.778534
53 104.680779 11.144459 -10.335981 -16.212063 45.237247 70.462852 105.778534
[R_mid_hand02]
52 104.070427 2.443552 8.231699 49.067379 -67.749794 39.286465 104.424065
53 104.070427 2.443552 8.231699 49.067379 -67.749794 39.286469 104.424065
[R_mid_hand03]
52 106.028137 -11.221827 -5.996406 -177.101105 15.551026 -76.585571 106.788818
53 106.028137 -11.221827 -5.996406 -177.101105 15.551026 -76.585571 106.788818
[spine02]
52 129.756927 0.001550 0.000119 0.550897 -4.022110 -15.649856 129.756927
53 129.756927 0.001550 0.000119 0.551949 -4.021966 -15.662377 129.756927
[spine03]
52 78.613892 0.081557 -4.899044 2.008618 3.773867 18.172768 78.766434
53 78.613892 0.081559 -4.899044 2.008949 3.773691 18.182800 78.766434
[pelvis]
52 169.435242 0.051022 0.000000 -0.070751 -0.177569 17.538349 169.435257
53 169.435242 0.051022 0.000000 -0.070782 -0.177557 17.558367 169.435257
[null_rope03_connect]
52 -1.257226 -2.466202 137.391083 -48.714951 -66.308594 108.949890 137.418976
53 -1.257226 -2.466202 137.391083 -48.167515 -65.925659 109.315544 137.418976
[null_rope04_connect]
52 -1.259640 -2.480268 -137.844437 -48.714951 -66.308594 108.949890 137.872513
53 -1.259640 -2.480268 -137.844437 -48.167515 -65.925659 109.315544 137.872513
[Rope3_Seg01]
52 0.000000 0.000038 0.000000 79.296387 -54.787846 -136.818192 0.000038
53 0.000000 0.000039 0.000000 86.889351 -58.380100 -141.127609 0.000039
[Rope3_Seg02]
52 139.999924 -0.000119 0.000060 -6.483972 12.161455 2.762963 139.999924
53 139.999924 -0.000119 0.000060 -7.330911 12.368443 1.200260 139.999924
[Rope3_Seg03]
52 139.999924 -0.000119 0.000119 -0.782610 37.118874 17.997818 139.999924
53 139.999924 -0.000119 0.000119 -3.039269 40.121868 14.301201 139.999924
[Rope3_Seg04]
52 139.999924 0.000119 0.000000 19.961813 37.755199 31.017359 139.999924
53 139.999924 0.000119 0.000000 19.863098 40.071224 27.174288 139.999924
[Rope3_Seg05]
52 139.999924 -0.000238 0.000060 20.819649 21.054827 -3.274071 139.999924
53 139.999924 -0.000238 0.000060 20.086729 23.071226 -7.295621 139.999924
[Rope3_Seg06]
52 139.999893 -0.000119 -0.000060 19.725166 17.683521 -19.798162 139.999893
53 139.999893 -0.000119 -0.000060 15.726082 17.569294 -22.787949 139.999893
[Rope3_Seg07]
52 139.999771 0.000060 -0.000119 7.461364 6.505980 -11.728838 139.999771
53 139.999771 0.000060 -0.000119 5.304289 6.035706 -11.190282 139.999771
[Rope3_Seg08]
52 139.999985 -0.000060 0.000000 3.283200 2.476143 -6.111510 139.999985
53 139.999985 -0.000060 0.000000 2.394637 2.388815 -5.670496 139.999985
[Rope3_Seg09]
52 90.185997 -0.000179 -0.000060 89.793228 -1.359877 -0.847183 90.185997
53 90.185997 -0.000179 -0.000060 89.793228 -1.359877 -0.847183 90.185997
[R_rear_hand01]
52 103.366196 -6.073594 -10.757982 -177.714203 24.565960 -73.910950 104.101845
53 103.366196 -6.073594 -10.757982 -177.714203 24.565960 -73.910950 104.101845
[R_rear_hand02]
52 100.509819 12.039542 -7.992327 -12.874834 36.868492 72.167213 101.543350
53 100.509819 12.039542 -7.992327 -12.874833 36.868488 72.167213 101.543350
[R_rear_hand03]
52 101.539970 5.215704 5.435467 71.484581 -71.816628 21.513813 101.819031
53 101.539970 5.215704 5.435467 71.484581 -71.816628 21.513813 101.819031
[Rope4_Seg01]
52 -0.000076 0.000000 0.000000 -41.530823 -20.276953 178.315613 0.000076
53 -0.000077 0.000000 0.000000 -41.917091 -16.239311 177.528015 0.000077
[Rope4_Seg02]
52 139.999985 0.000060 0.000119 -13.291135 5.145448 11.340348 139.999985
53 139.999985 0.000060 0.000119 -15.689440 4.312213 11.047701 139.999985
[Rope4_Seg03]
52 139.999924 0.000000 -0.000238 -35.817940 2.444517 18.432484 139.999924
53 139.999924 0.000000 -0.000238 -39.023613 0.914823 17.989321 139.999924
[Rope4_Seg04]
52 139.999985 0.000000 0.000119 -32.755417 -12.549296 15.828870 139.999985
53 139.999985 0.000000 0.000119 -31.524773 -15.756381 14.872872 139.999985
[Rope4_Seg05]
52 139.999802 -0.000060 -0.000119 -25.164812 -8.740697 16.769260 139.999802
53 139.999802 -0.000060 -0.000119 -19.447609 -9.949701 13.460766 139.999802
[Rope4_Seg06]
52 139.999924 0.000000 0.000060 -54.888168 -29.441534 56.368969 139.999924
53 139.999924 0.000000 0.000060 -51.419102 -25.543144 55.205208 139.999924
[Rope4_Seg07]
52 139.999802 0.000000 0.000000 -2.775026 -28.413195 6.641904 139.999802
53 139.999802 0.000000 0.000000 -5.070847 -32.045341 10.868461 139.999802
[Rope4_Seg08]
52 139.999924 0.000000 0.000119 -0.608470 -8.108701 1.542192 139.999924
53 139.999924 0.000000 0.000119 -0.486872 -8.782770 2.226668 139.999924
[Rope4_Seg09]
52 90.185791 0.000060 0.000060 -135.617828 2.228885 0.850567 90.185791
53 90.185791 0.000060 0.000060 -135.617828 2.228885 0.850567 90.185791
[L_rear_hand01]
52 101.696655 -8.392275 -7.654577 -12.874829 -36.868488 107.832764 102.329041
53 101.696655 -8.392275 -7.654577 -12.874829 -36.868488 107.832764 102.329041
[L_rear_hand02]
52 102.726799 -1.568258 5.773216 71.484581 71.816628 158.486145 102.900848
53 102.726799 -1.568258 5.773216 71.484581 71.816628 158.486160 102.900848
[L_rear_hand03]
52 104.552910 9.721220 -10.420293 -177.714203 -24.565958 -106.089043 105.519653
53 104.552910 9.721220 -10.420293 -177.714203 -24.565960 -106.089035 105.519653
